<?xml version="1.0" encoding="UTF-8"?>
<svg width="171px" height="152px" viewBox="0 0 171 152" version="1.1" xmlns="http://www.w3.org/2000/svg" xmlns:xlink="http://www.w3.org/1999/xlink">
    <!-- Generator: Sketch 52.6 (67491) - http://www.bohemiancoding.com/sketch -->
    <title>logo</title>
    <desc>Created with Sketch.</desc>
    <g id="Page-1" stroke="none" stroke-width="1" fill="none" fill-rule="evenodd">
        <g id="logo" transform="translate(1.000000, 1.000000)" stroke="#1E252D">
            <path d="M22.0458984,0 L114.770508,0 C122.338905,0 127.441393,2.88083057 130.078125,8.64257812 L130.517578,11.4257812 L130.517578,15.3076172 C130.517578,18.3838044 126.049849,30.3221616 117.114258,51.1230469 C111.791966,58.9844143 103.418026,62.9150391 91.9921875,62.9150391 L48.7792969,62.9150391 C47.9492146,62.9150391 44.9219011,69.9950464 39.6972656,84.1552734 C34.0820032,97.7783884 31.0791035,104.711913 30.6884766,104.956055 L0,104.956055 L0,104.589844 C16.5039888,62.5974463 25.1464805,41.3574243 25.9277344,40.8691406 L80.2001953,40.8691406 C85.4736592,40.8691406 89.0136628,39.8193464 90.8203125,37.7197266 C92.8222756,34.9365095 94.38476,31.0058848 95.5078125,25.9277344 C94.4824167,23.5839727 92.6513804,22.4121094 90.0146484,22.4121094 L33.0322266,22.4121094 C31.1279202,19.6288923 27.4658474,12.1582639 22.0458984,0 Z" id="Path" fill="#018B94"></path>
            <path d="M69.6903953,66.6308594 L151.428677,66 C156.474275,66 160.537019,66 163.616909,66 L168.016567,77.0273437 L169.310024,82.2351074 C168.016567,85.0876465 162.708018,96.3221616 153.772427,117.123047 C148.450134,124.984414 140.076195,128.915039 128.650356,128.915039 L85.4374656,128.915039 C84.6073834,128.915039 81.5800699,135.995046 76.3554344,150.155273 L46.8657227,147.689333 C56.825007,120.801394 62.0650672,107.194663 62.5859031,106.869141 L116.858364,106.869141 C122.131828,106.869141 125.671832,105.819346 127.478481,103.719727 C129.480444,100.93651 131.042929,97.0058848 132.165981,91.9277344 C131.140586,89.5839727 129.309549,88.4121094 126.672817,88.4121094 L69.6903953,88.4121094 C69.6903953,85.8496094 69.5688038,78.0541992 69.6903953,66.6308594 Z" id="Path-Copy" fill="#70E1E8" transform="translate(108.087873, 108.077637) scale(-1, 1) translate(-108.087873, -108.077637) "></path>
        </g>
    </g>
</svg>